<mxfile host="app.diagrams.net" modified="2020-12-22T06:46:28.001Z" agent="5.0 (Macintosh; Intel Mac OS X 11_0_1) AppleWebKit/537.36 (KHTML, like Gecko) Chrome/87.0.4280.88 Safari/537.36" etag="t6orV-49ho8pItzjR3Ij" version="14.1.1" type="github">
  <diagram id="35s4OCsVY5bFKR_n7nO_" name="Page-1">
    <mxGraphModel dx="711" dy="1370" grid="1" gridSize="10" guides="1" tooltips="1" connect="1" arrows="1" fold="1" page="1" pageScale="1" pageWidth="827" pageHeight="1169" math="0" shadow="0">
      <root>
        <mxCell id="0" />
        <mxCell id="1" parent="0" />
        <mxCell id="LesvuERL6bsDx7-wBJUY-1" value="" style="edgeStyle=none;html=1;fontColor=#000000;strokeWidth=3;strokeColor=#000000;" edge="1" parent="1">
          <mxGeometry width="100" height="100" relative="1" as="geometry">
            <mxPoint x="2210" y="1600.5" as="sourcePoint" />
            <mxPoint x="2211" y="1090" as="targetPoint" />
          </mxGeometry>
        </mxCell>
        <mxCell id="LesvuERL6bsDx7-wBJUY-2" value="" style="edgeStyle=none;html=1;fontColor=#000000;strokeWidth=3;strokeColor=#000000;" edge="1" parent="1">
          <mxGeometry width="100" height="100" relative="1" as="geometry">
            <mxPoint x="2208.5" y="1600" as="sourcePoint" />
            <mxPoint x="2770" y="1600" as="targetPoint" />
          </mxGeometry>
        </mxCell>
        <mxCell id="LesvuERL6bsDx7-wBJUY-3" value="4-groups" style="text;spacingTop=-5;align=center;verticalAlign=middle;fontStyle=0;html=1;fontSize=18;points=[];strokeColor=none;" vertex="1" parent="1">
          <mxGeometry x="2473" y="1602.25" width="120" height="30" as="geometry" />
        </mxCell>
        <mxCell id="LesvuERL6bsDx7-wBJUY-4" value="2-groups" style="text;spacingTop=-5;align=center;verticalAlign=middle;fontStyle=0;html=1;fontSize=18;points=[];strokeColor=none;" vertex="1" parent="1">
          <mxGeometry x="2593" y="1603.25" width="120" height="30" as="geometry" />
        </mxCell>
        <mxCell id="LesvuERL6bsDx7-wBJUY-6" value="" style="whiteSpace=wrap;gradientColor=none;gradientDirection=east;strokeColor=none;html=1;fontColor=#23445d;fillColor=#009a00;" vertex="1" parent="1">
          <mxGeometry x="2750" y="1200" width="35.000000000000114" height="30.000000000000227" as="geometry" />
        </mxCell>
        <mxCell id="LesvuERL6bsDx7-wBJUY-7" value="" style="whiteSpace=wrap;gradientColor=none;gradientDirection=east;strokeColor=none;html=1;fontColor=#23445d;fillColor=#F08705;" vertex="1" parent="1">
          <mxGeometry x="2749.9999999999995" y="1160" width="35.000000000000114" height="30.000000000000227" as="geometry" />
        </mxCell>
        <mxCell id="LesvuERL6bsDx7-wBJUY-8" value="" style="whiteSpace=wrap;gradientColor=none;gradientDirection=east;strokeColor=none;html=1;fontColor=#23445d;fillColor=#0078b9;" vertex="1" parent="1">
          <mxGeometry x="2750" y="1120" width="35.000000000000114" height="30.000000000000114" as="geometry" />
        </mxCell>
        <mxCell id="LesvuERL6bsDx7-wBJUY-9" value="AlexNet" style="text;spacingTop=-5;html=1;points=[];fontSize=15;" vertex="1" parent="1">
          <mxGeometry x="2790" y="1165" width="80" height="20" as="geometry" />
        </mxCell>
        <mxCell id="LesvuERL6bsDx7-wBJUY-10" value="ResNet50" style="text;spacingTop=-5;html=1;points=[];fontSize=15;" vertex="1" parent="1">
          <mxGeometry x="2790" y="1125" width="80" height="20" as="geometry" />
        </mxCell>
        <mxCell id="LesvuERL6bsDx7-wBJUY-11" value="VGG-16&lt;br&gt;" style="text;spacingTop=-5;html=1;points=[];fontSize=15;" vertex="1" parent="1">
          <mxGeometry x="2790" y="1205" width="80" height="20" as="geometry" />
        </mxCell>
        <mxCell id="LesvuERL6bsDx7-wBJUY-12" value="communication/computation" style="text;spacingTop=-5;html=1;fontSize=24;fontStyle=0;points=[];textDirection=ltr;align=right;verticalAlign=top;horizontal=0;" vertex="1" parent="1">
          <mxGeometry x="2120" y="1112" width="80" height="20" as="geometry" />
        </mxCell>
        <mxCell id="LesvuERL6bsDx7-wBJUY-13" value="" style="rounded=0;whiteSpace=wrap;html=1;fillColor=#0078B9;" vertex="1" parent="1">
          <mxGeometry x="2483" y="1528.75" width="32.5" height="69.5" as="geometry" />
        </mxCell>
        <mxCell id="LesvuERL6bsDx7-wBJUY-14" value="2.00" style="text;spacingTop=-5;align=center;verticalAlign=middle;fontStyle=0;html=1;fontSize=18;points=[];labelBackgroundColor=none;labelBorderColor=none;rounded=0;" vertex="1" parent="1">
          <mxGeometry x="2170" y="1261" width="30" height="40" as="geometry" />
        </mxCell>
        <mxCell id="LesvuERL6bsDx7-wBJUY-15" value="1.00" style="text;spacingTop=-5;align=center;verticalAlign=middle;fontStyle=0;html=1;fontSize=18;points=[];labelBackgroundColor=none;labelBorderColor=none;rounded=0;" vertex="1" parent="1">
          <mxGeometry x="2170" y="1421" width="30" height="40" as="geometry" />
        </mxCell>
        <mxCell id="LesvuERL6bsDx7-wBJUY-16" value="0.00" style="text;spacingTop=-5;align=center;verticalAlign=middle;fontStyle=0;html=1;fontSize=18;points=[];labelBackgroundColor=none;labelBorderColor=none;rounded=0;" vertex="1" parent="1">
          <mxGeometry x="2170" y="1579.5" width="30" height="40" as="geometry" />
        </mxCell>
        <mxCell id="LesvuERL6bsDx7-wBJUY-17" value="" style="rounded=0;whiteSpace=wrap;html=1;fillColor=#F08705;" vertex="1" parent="1">
          <mxGeometry x="2515.5" y="1348.75" width="54.5" height="249.5" as="geometry" />
        </mxCell>
        <mxCell id="LesvuERL6bsDx7-wBJUY-18" value="" style="rounded=0;whiteSpace=wrap;html=1;fillColor=#009A00;" vertex="1" parent="1">
          <mxGeometry x="2548" y="1328.75" width="32.5" height="269.5" as="geometry" />
        </mxCell>
        <mxCell id="LesvuERL6bsDx7-wBJUY-19" value="" style="rounded=0;whiteSpace=wrap;html=1;fillColor=#0078B9;" vertex="1" parent="1">
          <mxGeometry x="2604.25" y="1460" width="32.5" height="138.25" as="geometry" />
        </mxCell>
        <mxCell id="LesvuERL6bsDx7-wBJUY-20" value="" style="rounded=0;whiteSpace=wrap;html=1;fillColor=#F08705;" vertex="1" parent="1">
          <mxGeometry x="2636.75" y="1150" width="32.5" height="448.25" as="geometry" />
        </mxCell>
        <mxCell id="LesvuERL6bsDx7-wBJUY-21" value="" style="rounded=0;whiteSpace=wrap;html=1;fillColor=#009A00;" vertex="1" parent="1">
          <mxGeometry x="2669.25" y="1120" width="32.5" height="478.25" as="geometry" />
        </mxCell>
        <mxCell id="LesvuERL6bsDx7-wBJUY-25" value="3.00" style="text;spacingTop=-5;align=center;verticalAlign=middle;fontStyle=0;html=1;fontSize=18;points=[];labelBackgroundColor=none;labelBorderColor=none;rounded=0;" vertex="1" parent="1">
          <mxGeometry x="2170" y="1102" width="30" height="40" as="geometry" />
        </mxCell>
        <mxCell id="LesvuERL6bsDx7-wBJUY-30" value="R&lt;sup&gt;2&lt;/sup&gt;SP(16groups)" style="text;spacingTop=-5;align=center;verticalAlign=middle;fontStyle=0;html=1;fontSize=18;points=[];strokeColor=none;" vertex="1" parent="1">
          <mxGeometry x="2220" y="1603.25" width="120" height="30" as="geometry" />
        </mxCell>
        <mxCell id="LesvuERL6bsDx7-wBJUY-31" value="" style="rounded=0;whiteSpace=wrap;html=1;fillColor=#0078B9;" vertex="1" parent="1">
          <mxGeometry x="2234.5" y="1528.75" width="32.5" height="69.5" as="geometry" />
        </mxCell>
        <mxCell id="LesvuERL6bsDx7-wBJUY-32" value="" style="rounded=0;whiteSpace=wrap;html=1;fillColor=#F08705;" vertex="1" parent="1">
          <mxGeometry x="2267" y="1348.75" width="32.5" height="249.5" as="geometry" />
        </mxCell>
        <mxCell id="LesvuERL6bsDx7-wBJUY-33" value="" style="rounded=0;whiteSpace=wrap;html=1;fillColor=#009A00;" vertex="1" parent="1">
          <mxGeometry x="2299.5" y="1328.75" width="32.5" height="269.5" as="geometry" />
        </mxCell>
        <mxCell id="LesvuERL6bsDx7-wBJUY-35" value="8-groups" style="text;spacingTop=-5;align=center;verticalAlign=middle;fontStyle=0;html=1;fontSize=18;points=[];strokeColor=none;" vertex="1" parent="1">
          <mxGeometry x="2350" y="1603.25" width="120" height="30" as="geometry" />
        </mxCell>
        <mxCell id="LesvuERL6bsDx7-wBJUY-36" value="" style="rounded=0;whiteSpace=wrap;html=1;fillColor=#0078B9;" vertex="1" parent="1">
          <mxGeometry x="2360" y="1528.75" width="32.5" height="69.5" as="geometry" />
        </mxCell>
        <mxCell id="LesvuERL6bsDx7-wBJUY-37" value="" style="rounded=0;whiteSpace=wrap;html=1;fillColor=#F08705;" vertex="1" parent="1">
          <mxGeometry x="2392.5" y="1348.75" width="54.5" height="249.5" as="geometry" />
        </mxCell>
        <mxCell id="LesvuERL6bsDx7-wBJUY-38" value="" style="rounded=0;whiteSpace=wrap;html=1;fillColor=#009A00;" vertex="1" parent="1">
          <mxGeometry x="2425" y="1328.75" width="32.5" height="269.5" as="geometry" />
        </mxCell>
      </root>
    </mxGraphModel>
  </diagram>
</mxfile>
